<svg width="93" height="100" viewBox="0 0 93 100" fill="none" xmlns="http://www.w3.org/2000/svg">
<path opacity="0.85" d="M11.2454 98.166L89.1532 55.3367C90.2782 54.7178 91.2105 53.8337 91.8572 52.7725C92.5039 51.7113 92.8424 50.5099 92.839 49.2881C92.8356 48.0662 92.4905 46.8665 91.838 45.8084C91.1854 44.7503 90.2482 43.8708 89.1198 43.2574L11.212 0.944439C10.0773 0.32777 8.78911 0.00201917 7.47715 9.3568e-06C6.16519 -0.00200046 4.87585 0.319801 3.739 0.932991C2.60215 1.54618 1.65794 2.4291 1.00153 3.4928C0.345118 4.5565 -0.000321814 5.76341 2.24961e-07 6.99193V92.1341C0.000468437 93.3655 0.348081 94.5749 1.00771 95.6401C1.66735 96.7053 2.61561 97.5886 3.75665 98.2006C4.89769 98.8127 6.19107 99.1318 7.50602 99.1257C8.82098 99.1196 10.1109 98.7885 11.2454 98.166Z" fill="url(#paint0_linear_3463_25009)"/>
<path opacity="0.85" d="M11.2454 98.166L89.1532 55.3367C90.2782 54.7178 91.2105 53.8337 91.8572 52.7725C92.5039 51.7113 92.8424 50.5099 92.839 49.2881C92.8356 48.0662 92.4905 46.8665 91.838 45.8084C91.1854 44.7503 90.2482 43.8708 89.1198 43.2574L11.212 0.944439C10.0773 0.32777 8.78911 0.00201917 7.47715 9.3568e-06C6.16519 -0.00200046 4.87585 0.319801 3.739 0.932991C2.60215 1.54618 1.65794 2.4291 1.00153 3.4928C0.345118 4.5565 -0.000321814 5.76341 2.24961e-07 6.99193V92.1341C0.000468437 93.3655 0.348081 94.5749 1.00771 95.6401C1.66735 96.7053 2.61561 97.5886 3.75665 98.2006C4.89769 98.8127 6.19107 99.1318 7.50603 99.1257C8.82098 99.1196 10.1109 98.7885 11.2454 98.166Z" fill="url(#paint1_linear_3463_25009)" fill-opacity="0.8"/>
<defs>
<linearGradient id="paint0_linear_3463_25009" x1="-30.7394" y1="86.1526" x2="189.372" y2="-119.632" gradientUnits="userSpaceOnUse">
<stop stop-color="white"/>
<stop offset="1" stop-color="white"/>
</linearGradient>
<linearGradient id="paint1_linear_3463_25009" x1="-30.7394" y1="86.1526" x2="189.372" y2="-119.632" gradientUnits="userSpaceOnUse">
<stop stop-color="#1A24E4"/>
<stop offset="1" stop-color="#CBCDFC" stop-opacity="0"/>
</linearGradient>
</defs>
</svg>
