<svg width="93" height="100" viewBox="0 0 93 100" fill="none" xmlns="http://www.w3.org/2000/svg">
<path opacity="0.85" d="M81.5935 98.1653L3.68998 55.3361C2.56386 54.718 1.63052 53.8342 0.983058 52.7728C0.335595 51.7115 -0.00335657 50.5097 2.50573e-05 49.2874C0.00340669 48.0651 0.348994 46.865 1.00232 45.8068C1.65565 44.7487 2.59387 43.8694 3.72339 43.2567L81.6269 0.943829C82.7619 0.327449 84.0503 0.00191807 85.3624 8.45032e-06C86.6745 -0.00190117 87.9639 0.319874 89.101 0.932948C90.238 1.54602 91.1826 2.42876 91.8395 3.49231C92.4964 4.55586 92.8426 5.76268 92.8431 6.99132V92.1335C92.8431 93.3654 92.4956 94.5755 91.8357 95.6413C91.1759 96.707 90.2271 97.5907 89.0854 98.2029C87.9437 98.815 86.6497 99.1339 85.3341 99.1273C84.0185 99.1207 82.7281 98.7889 81.5935 98.1653Z" fill="url(#paint0_linear_3463_25008)"/>
<path opacity="0.85" d="M81.5935 98.1653L3.68998 55.3361C2.56387 54.718 1.63052 53.8342 0.983058 52.7728C0.335595 51.7115 -0.00335657 50.5097 2.50573e-05 49.2874C0.00340669 48.0651 0.348994 46.865 1.00232 45.8068C1.65565 44.7487 2.59387 43.8694 3.72339 43.2567L81.6269 0.943829C82.7619 0.327449 84.0503 0.00191807 85.3624 8.45032e-06C86.6745 -0.00190117 87.9639 0.319874 89.101 0.932948C90.238 1.54602 91.1826 2.42876 91.8395 3.49231C92.4964 4.55586 92.8426 5.76268 92.8431 6.99132V92.1335C92.8431 93.3654 92.4956 94.5755 91.8357 95.6413C91.1759 96.707 90.2271 97.5907 89.0854 98.2029C87.9437 98.815 86.6497 99.1339 85.3341 99.1273C84.0185 99.1207 82.7281 98.7889 81.5935 98.1653Z" fill="url(#paint1_linear_3463_25008)" fill-opacity="0.9"/>
<defs>
<linearGradient id="paint0_linear_3463_25008" x1="12.5101" y1="110.394" x2="161.421" y2="-13.3372" gradientUnits="userSpaceOnUse">
<stop stop-color="white"/>
<stop offset="1" stop-color="white"/>
</linearGradient>
<linearGradient id="paint1_linear_3463_25008" x1="12.5101" y1="110.394" x2="161.421" y2="-13.3372" gradientUnits="userSpaceOnUse">
<stop stop-color="#1A24E4"/>
<stop offset="1" stop-color="#F0F0F0" stop-opacity="0"/>
</linearGradient>
</defs>
</svg>
