<svg width="637" height="706" viewBox="0 0 637 706" fill="none" xmlns="http://www.w3.org/2000/svg">
<path d="M312.429 343.185L604.906 180.861C608.283 178.996 611.084 176.332 613.03 173.133C614.976 169.934 616 166.312 616 162.625C616 158.939 614.976 155.317 613.03 152.118C611.084 148.919 608.283 146.255 604.906 144.39L347.872 2.90946C344.424 1.00437 340.499 0 336.501 0C332.504 0 328.578 1.00437 325.131 2.90946L11.0563 177.264C7.68408 179.136 4.88984 181.805 2.95051 185.007C1.01118 188.208 -0.0059141 191.832 2.58691e-05 195.517L0.653353 543.731C0.664783 547.412 1.69657 551.027 3.64668 554.218C5.5968 557.409 8.39771 560.065 11.7725 561.924L268.191 703.109C271.605 704.989 275.486 705.986 279.441 706C283.397 706.013 287.285 705.043 290.714 703.187C294.143 701.331 296.99 698.655 298.968 695.43C300.945 692.205 301.983 688.545 301.975 684.821L301.372 361.438C301.366 357.752 302.383 354.129 304.323 350.927C306.262 347.726 309.056 345.057 312.429 343.185V343.185Z" fill="url(#paint0_linear_3486_25574)"/>
<path opacity="0.7" d="M362.916 700.115L597.884 571.358C601.277 569.497 604.088 566.839 606.039 563.649C607.989 560.459 609.01 556.847 609 553.174C608.99 549.501 607.949 545.894 605.981 542.713C604.013 539.532 601.186 536.888 597.783 535.044L362.815 407.839C359.393 405.985 355.508 405.006 351.551 405C347.594 404.994 343.705 405.961 340.277 407.805C336.848 409.648 334 412.303 332.021 415.5C330.041 418.698 328.999 422.326 329 426.02V681.981C329.001 685.683 330.05 689.319 332.039 692.521C334.029 695.724 336.889 698.379 340.33 700.219C343.771 702.059 347.672 703.018 351.638 703C355.604 702.981 359.494 701.986 362.916 700.115Z" fill="url(#paint1_linear_3486_25574)" fill-opacity="0.8"/>
<path opacity="0.7" d="M603.073 509.079L368.128 379.028C364.732 377.151 361.917 374.467 359.965 371.244C358.012 368.022 356.99 364.373 357 360.661C357.01 356.95 358.053 353.305 360.023 350.092C361.993 346.879 364.823 344.209 368.229 342.349L603.174 213.866C606.597 211.994 610.482 211.006 614.439 211C618.396 210.994 622.285 211.971 625.714 213.833C629.144 215.694 631.992 218.375 633.973 221.604C635.954 224.834 636.998 228.498 637 232.229V490.763C637 494.504 635.952 498.178 633.962 501.414C631.972 504.65 629.111 507.334 625.667 509.193C622.224 511.051 618.321 512.02 614.354 512C610.386 511.98 606.495 510.972 603.073 509.079Z" fill="url(#paint2_linear_3486_25574)" fill-opacity="0.9"/>
<defs>
<linearGradient id="paint0_linear_3486_25574" x1="56.0731" y1="571.506" x2="393.735" y2="44.5903" gradientUnits="userSpaceOnUse">
<stop stop-color="#79EFAE"/>
<stop offset="0.58" stop-color="#8E94FF"/>
<stop offset="1" stop-color="#C842F5"/>
</linearGradient>
<linearGradient id="paint1_linear_3486_25574" x1="236.291" y1="663.999" x2="898.146" y2="43.2282" gradientUnits="userSpaceOnUse">
<stop stop-color="#1A24E4"/>
<stop offset="1" stop-color="#CBCDFC" stop-opacity="0"/>
</linearGradient>
<linearGradient id="paint2_linear_3486_25574" x1="394.728" y1="546.21" x2="846.322" y2="173.532" gradientUnits="userSpaceOnUse">
<stop stop-color="#1A24E4"/>
<stop offset="1" stop-color="#F0F0F0" stop-opacity="0"/>
</linearGradient>
</defs>
</svg>
