<svg width="205" height="234" viewBox="0 0 205 234" fill="none" xmlns="http://www.w3.org/2000/svg">
<path d="M103.878 113.482L201.123 59.8058C202.246 59.1892 203.177 58.3083 203.824 57.2505C204.471 56.1928 204.812 54.995 204.812 53.776C204.812 52.5569 204.471 51.3591 203.824 50.3014C203.177 49.2436 202.246 48.3627 201.123 47.7461L115.663 0.962083C114.516 0.332119 113.211 0 111.882 0C110.553 0 109.248 0.332119 108.102 0.962083L3.67608 58.6167C2.55486 59.2356 1.62581 60.1182 0.981005 61.1769C0.336203 62.2356 -0.00196636 63.4337 8.60114e-06 64.6525L0.217231 179.797C0.221032 181.015 0.564086 182.21 1.21247 183.265C1.86086 184.32 2.79213 185.199 3.91419 185.814L89.1699 232.5C90.3051 233.121 91.5956 233.451 92.9106 233.456C94.2256 233.46 95.5186 233.139 96.6586 232.525C97.7987 231.912 98.7454 231.027 99.4029 229.96C100.06 228.894 100.405 227.684 100.403 226.452L100.202 119.518C100.2 118.299 100.539 117.101 101.183 116.042C101.828 114.984 102.757 114.101 103.878 113.482Z" fill="url(#paint0_linear_3463_25003)"/>
<defs>
<linearGradient id="paint0_linear_3463_25003" x1="18.6436" y1="188.982" x2="130.043" y2="14.1914" gradientUnits="userSpaceOnUse">
<stop stop-color="#79EFAE"/>
<stop offset="0.58" stop-color="#8E94FF"/>
<stop offset="1" stop-color="#C842F5"/>
</linearGradient>
</defs>
</svg>
